# Made in Blockbench 4.12.6
mtllib model.mtl

o cube
v 0.25 0.3125 0.125
v 0.25 0.3125 -0.0625
v 0.25 0.125 0.125
v 0.25 0.125 -0.0625
v -0.25 0.3125 -0.0625
v -0.25 0.3125 0.125
v -0.25 0.125 -0.0625
v -0.25 0.125 0.125
vt 0.16666666666666666 0.41666666666666663
vt 0.5 0.41666666666666663
vt 0.5 0.29166666666666663
vt 0.16666666666666666 0.29166666666666663
vt 0.041666666666666664 0.41666666666666663
vt 0.16666666666666666 0.41666666666666663
vt 0.16666666666666666 0.29166666666666663
vt 0.041666666666666664 0.29166666666666663
vt 0.625 0.41666666666666663
vt 0.9583333333333334 0.41666666666666663
vt 0.9583333333333334 0.29166666666666663
vt 0.625 0.29166666666666663
vt 0.5 0.41666666666666663
vt 0.625 0.41666666666666663
vt 0.625 0.29166666666666663
vt 0.5 0.29166666666666663
vt 0.5 0.41666666666666663
vt 0.16666666666666666 0.41666666666666663
vt 0.16666666666666666 0.5416666666666667
vt 0.5 0.5416666666666667
vt 0.8333333333333334 0.5416666666666667
vt 0.5 0.5416666666666667
vt 0.5 0.41666666666666663
vt 0.8333333333333334 0.41666666666666663
vn 0 0 -1
vn 1 0 0
vn 0 0 1
vn -1 0 0
vn 0 1 0
vn 0 -1 0
usemtl m_3420b3f5-9f0a-0742-ec39-686dccff46cf
f 4/4/1 7/3/1 5/2/1 2/1/1
f 3/8/2 4/7/2 2/6/2 1/5/2
f 8/12/3 3/11/3 1/10/3 6/9/3
f 7/16/4 8/15/4 6/14/4 5/13/4
f 6/20/5 1/19/5 2/18/5 5/17/5
f 7/24/6 4/23/6 3/22/6 8/21/6